<svg xmlns="http://www.w3.org/2000/svg" viewBox="0 0 64 64">
  <rect width="64" height="64" rx="14" fill="#f4d6a8"/>
  <path d="M17 25h29v12c0 8.3-6.7 15-15 15s-15-6.7-15-15V26c0-.6.4-1 1-1Z" fill="#6f3b1f"/>
  <path d="M46 29h4.5c3.6 0 6.5 2.9 6.5 6.5s-2.9 6.5-6.5 6.5H46v-5h4.5c.8 0 1.5-.7 1.5-1.5s-.7-1.5-1.5-1.5H46v-5Z" fill="#6f3b1f"/>
  <path d="M17 25h29v5H17v-5Z" fill="#8b4a25"/>
  <path d="M22 12c-2.7 4 2.8 5.4 0 9.4M32 10c-3 4.5 3.2 6.2 0 11M42 12c-2.7 4 2.8 5.4 0 9.4" fill="none" stroke="#8b4a25" stroke-width="3" stroke-linecap="round"/>
  <path d="M13 52h39" fill="none" stroke="#8b4a25" stroke-width="5" stroke-linecap="round"/>
</svg>
